<svg width="410" height="319" viewBox="0 0 410 319" fill="none" xmlns="http://www.w3.org/2000/svg">
<path d="M101.404 234.61V237.626L103.824 239.425L199.496 310.56L201.907 312.352L204.786 311.496L289.178 286.389L289.83 286.195L290.423 285.86L297.548 281.826L321.627 291.247L323.695 292.056L325.791 291.324L371.329 275.424L372.412 275.046L373.278 274.295L397.927 252.955L401.645 249.736L399.219 245.458L378.33 208.635L377.268 206.764L375.26 205.994L323.239 186.039L341.278 157.971L367.622 152.617L369.589 152.218L370.92 150.714L387.213 132.303L390.422 128.676L387.555 124.774L371.262 102.597L369.951 100.812L367.794 100.307L335.626 92.775L334.584 92.5312L333.522 92.6623L279.262 99.3625V46.7305V44.2189L277.473 42.4563L251.989 17.3499L250.496 15.8796L248.413 15.6578L161.933 6.45215L161.443 6.4L160.951 6.42846L66.9511 11.8682L64.063 12.0353L62.3952 14.3992L40.253 45.7821L38.9879 47.5752L39.1782 49.7614L46.0672 128.908L13.3762 168.439L9.34805 173.31L14.4221 177.079L64.5554 214.32L66.0076 215.399L67.8141 215.495L101.404 217.285V234.61Z" fill="#64A3FF" stroke="black" stroke-width="12"/>
<path d="M218.951 294.028L177.173 287.333L203.493 305.326L288.302 281.475L296.658 274.78L282.036 262.645L259.476 279.801L218.951 294.028Z" fill="#4863AD" stroke="#A9D4FF" stroke-width="2"/>
<path d="M219.369 294.028L175.502 284.823L203.076 307L219.369 294.028Z" fill="#4377D4" stroke="#A9D4FF" stroke-width="2"/>
<path d="M261.147 243.397L217.28 237.957L267.413 171.426L284.542 208.248L261.147 243.397Z" stroke="#A9D4FF" stroke-width="2"/>
<path d="M161.716 65.1418L143.751 28.7376L244.018 22.461L267.831 53.844V171.426L219.369 236.702L164.222 191.929L161.716 65.1418Z" fill="#89B2FF" stroke="#A9D4FF" stroke-width="2"/>
<path d="M145.422 29.156L66.4623 17.8582L159.627 12L244.853 22.8794L145.422 29.156Z" fill="white"/>
<path d="M271.591 118.702L366.009 105.312L333.005 99.0355L271.591 105.312L274.098 49.6596L248.613 22.8794L266.578 53.844V109.496L271.591 118.702Z" fill="white"/>
<path d="M373.529 212.014L324.649 225.404L285.378 208.248L314.205 190.255L373.529 212.014Z" fill="white"/>
<path d="M145.422 29.156L66.4623 17.8582L159.627 12L244.853 22.8794L145.422 29.156Z" stroke="#A9D4FF" stroke-width="2"/>
<path d="M271.591 118.702L366.009 105.312L333.005 99.0355L271.591 105.312L274.098 49.6596L248.613 22.8794L266.578 53.844V109.496L271.591 118.702Z" stroke="#A9D4FF" stroke-width="2"/>
<path d="M373.529 212.014L324.649 225.404L285.378 208.248L314.205 190.255L373.529 212.014Z" stroke="#A9D4FF" stroke-width="2"/>
<path d="M67.2978 109.078L52.2578 127.908L46.4089 49.2411L67.2978 17.4397L142.08 28.3191L112 65.1418L121.191 189.418H99.8845L90.6934 118.284L67.2978 109.078Z" fill="#63A9FF" stroke="#A9D4FF" stroke-width="2"/>
<path d="M114.089 64.305L46.4089 48.8227L69.3867 16.6028L142.916 29.5745L245.271 21.6241L266.16 53.844L160.044 64.305H114.089Z" fill="#7BBBFF" stroke="#A9D4FF" stroke-width="2"/>
<path d="M121.191 189.837L113.253 64.7234L142.498 28.7376L160.462 64.7234L164.64 193.603L121.191 189.837Z" fill="#8AB8FF" stroke="#A9D4FF" stroke-width="2"/>
<path d="M163.804 191.929L99.4667 189.418L107.822 213.688H146.676L174.249 235.447L214.773 238.376L261.564 279.801L282.871 262.227L261.564 242.56L219.369 238.376L163.804 191.929Z" fill="#3662CC" stroke="#A9D4FF" stroke-width="2"/>
<path d="M116.596 242.142V213.688H145.422L174.249 235.447V286.078L116.596 242.142Z" fill="#67C6F5" stroke="#A9D4FF" stroke-width="2"/>
<path d="M261.564 242.56L284.542 208.248L325.902 225.823L371.858 212.014L394 248.418L348.044 265.993L301.671 263.064L261.564 242.56Z" fill="#65B2FF" stroke="#A9D4FF" stroke-width="2"/>
<path d="M325.484 225.823L301.671 262.227L346.791 265.993L325.484 225.823Z" fill="#7FBDFF" stroke="#A9D4FF" stroke-width="2"/>
<path d="M299.582 262.645L260.729 241.305L282.453 262.645L297.076 274.78L324.231 285.66L367.68 268.922L392.329 249.255L345.956 266.411L299.582 262.645Z" fill="#536DB1" stroke="#A9D4FF" stroke-width="2"/>
<path d="M322.142 285.241L301.671 262.227L346.791 266.411L322.142 285.241Z" fill="#457ED8" stroke="#A9D4FF" stroke-width="2"/>
<path d="M275.351 150.504L312.533 189.837L350.133 135.858L275.351 150.504Z" fill="#72A2FF" stroke="#A9D4FF" stroke-width="2"/>
<path d="M313.369 190.674L284.124 209.504L268.667 171.426V112.844L274.098 118.284L364.756 105.73L382.72 129.163L274.098 149.667L313.369 190.674Z" fill="#8CB7FF" stroke="#A9D4FF" stroke-width="2"/>
<path d="M339.689 150.922L349.716 135.021L382.72 128.326L365.591 146.738L339.689 150.922Z" fill="#4163C6" stroke="#A9D4FF" stroke-width="2"/>
<path d="M215.191 240.468L172.16 236.284V283.567L215.191 293.191V240.468Z" fill="#579BFF" stroke="#A9D4FF" stroke-width="2"/>
<path d="M160.044 64.7234H113.253L141.662 27.9007L160.044 64.7234Z" fill="#97C2FF" stroke="#A9D4FF" stroke-width="2"/>
<path d="M118.267 187.326C120.272 189.335 112 201.135 106.151 213.27L65.2089 209.504L18 171.426L65.2089 107.823L89.44 118.284C89.44 118.284 116.261 185.318 118.267 187.326Z" fill="#F7A93E" stroke="#C5790F" stroke-width="3"/>
<path d="M89.0222 116.61L37.2178 184.816L98.2133 189H119.102L89.0222 116.61Z" fill="#EEC387" stroke="#C5790F" stroke-width="3"/>
<path d="M190.542 157.199V94.0142L243.182 86.9007L241.093 146.738L190.542 157.199Z" fill="#202B49" stroke="white" stroke-width="4"/>
<path d="M216.444 89.8298L217.698 122.887L190.542 126.234V94.0142L216.444 89.8298Z" fill="white"/>
</svg>
